<svg width="53" height="44" viewBox="0 0 53 44" fill="none" xmlns="http://www.w3.org/2000/svg">
<path fill-rule="evenodd" clip-rule="evenodd" d="M22.8142 40.9748C25.033 40.9748 27.2676 40.9748 29.5178 40.9748C30.7238 40.9748 32.1566 40.7887 32.6035 39.4245C32.7697 38.9115 32.8168 38.4371 32.8618 37.865C32.873 37.7288 32.9718 37.6971 33.0976 37.6971C33.4254 37.6971 33.7556 37.6971 34.0835 37.6971C34.2115 37.6971 34.2743 37.7606 34.2743 37.89C34.2788 39.7423 34.2833 41.5922 34.2811 43.4445C34.2811 43.5693 34.2182 43.6306 34.0902 43.6306C29.1562 43.6352 24.2246 43.6374 19.2906 43.6374C19.1289 43.6374 19.0997 43.5285 19.0997 43.3832C19.0997 42.5842 19.0997 41.7852 19.0997 40.9839C19.0997 40.9362 19.1334 40.884 19.2008 40.825C21.6015 38.7435 23.8899 36.519 25.8909 34.0402C26.9038 32.785 27.829 31.4389 28.5319 29.9794C29.4055 28.168 30.0972 25.5258 28.377 23.921C27.4562 23.0607 26.084 22.7883 24.8691 22.9631C23.9753 23.0902 23.1893 23.5169 22.5829 24.1956C22.109 24.7268 21.7879 25.3147 21.5049 25.9752C21.4713 26.0501 21.4129 26.0887 21.323 26.0887C20.8043 26.0887 20.2832 26.0865 19.7645 26.0865C19.5983 26.0865 19.486 26.0184 19.5421 25.8345C19.8543 24.7903 20.3461 23.8007 21.0333 22.9585C22.2932 21.4127 24.0449 20.6568 26.0122 20.6182C28.7879 20.5615 31.9051 21.2515 33.1582 24.0912C33.54 24.9538 33.6994 25.9684 33.7084 26.9263C33.7196 28.1884 33.3581 29.3869 32.7966 30.5014C32.1476 31.7885 31.2875 32.9666 30.3465 34.0493C28.0962 36.637 25.4418 38.7775 22.794 40.9249C22.7513 40.9612 22.7558 40.9771 22.812 40.9771M47.6905 37.6471C47.7489 36.9957 47.7489 36.3215 47.6232 35.6905C47.3155 34.1469 46.2173 33.1482 44.7351 32.7396C44.1063 32.5671 43.455 32.4763 42.7768 32.4695C41.7393 32.4604 40.7017 32.4558 39.6642 32.4581C39.6552 32.4581 39.6507 32.4626 39.6507 32.4717C39.6507 35.1593 39.6507 37.8492 39.6552 40.539C39.6552 41.1814 40.0662 41.4765 40.6433 41.5877C40.9443 41.6444 41.2676 41.6785 41.6135 41.6876C42.9722 41.7239 44.4297 41.7443 45.6806 41.111C47.028 40.4278 47.5625 39.0953 47.6883 37.6471M39.6462 29.8046C39.6462 30.0384 39.6462 30.2699 39.6507 30.4992C39.6507 30.5128 39.6619 30.5219 39.6732 30.5219C40.4255 30.5219 41.1778 30.5219 41.9301 30.5128C43.0508 30.5037 44.3601 30.3198 45.2831 29.6139C46.242 28.8785 46.5699 27.748 46.5924 26.5609C46.6238 24.8017 46.0758 23.3285 44.2612 22.8223C43.2012 22.525 42.0335 22.5204 40.9353 22.5885C40.4457 22.6203 39.9202 22.7111 39.7495 23.2491C39.6776 23.4715 39.6529 23.7689 39.6529 24.0276C39.6529 25.9525 39.6507 27.8797 39.6485 29.8046M47.0056 31.3844C47.8612 31.5865 48.7281 31.9292 49.4535 32.4331C50.8256 33.3888 51.5285 34.837 51.697 36.4986C51.8946 38.4166 51.5016 40.3234 50.0171 41.6422C48.7236 42.793 46.9202 43.2856 45.2494 43.4808C44.3556 43.5852 43.4595 43.6374 42.5612 43.6374C40.3199 43.6374 38.0787 43.6374 35.8374 43.6352C35.6824 43.6352 35.6353 43.5489 35.6353 43.3991C35.6353 37.1773 35.6353 30.9532 35.6353 24.7313C35.6353 24.207 35.6106 23.7416 35.5634 23.3376C35.4826 22.6453 35.1839 22.2866 34.5236 22.0914C33.9015 21.9053 33.248 21.8145 32.6102 21.7123C32.5316 21.701 32.4732 21.6306 32.471 21.5512C32.4665 21.306 32.4665 21.0518 32.471 20.7885C32.471 20.65 32.5855 20.6205 32.709 20.6205C35.9901 20.6205 39.2712 20.6205 42.55 20.6205C45.301 20.6205 49.0851 21.0654 50.2507 24.1366C50.5696 24.9787 50.6594 25.9366 50.5831 26.8355C50.3944 29.0487 48.9908 30.5786 47.0011 31.3481C46.9651 31.3617 46.9651 31.3731 47.0011 31.3822M10.2761 22.1845C7.27579 22.2594 6.0496 24.8993 5.57799 27.4756C5.29502 29.0169 5.2546 30.5832 5.29278 32.1449C5.39384 36.2579 6.37074 41.9282 11.6797 42.0644C13.802 42.1189 15.9018 41.5128 17.6422 40.2734C17.7613 40.1894 17.8982 40.3052 17.8982 40.4368C17.9005 41.1496 17.9005 41.8624 17.8982 42.5751C17.8982 42.65 17.8646 42.7022 17.7972 42.7317C17.6085 42.8134 17.4177 42.8861 17.2245 42.9519C15.0798 43.6715 12.8745 44.0188 10.6085 43.9938C7.83273 43.962 5.19621 43.1085 3.47595 40.7978C1.93985 38.7367 1.43231 35.9606 1.30206 33.4478C1.21672 31.7885 1.25265 30.1019 1.48621 28.4562C1.72651 26.7538 2.22731 25.0378 3.21095 23.6123C4.46184 21.7986 6.30112 20.793 8.43235 20.4321C9.81574 20.1983 11.2598 20.1915 12.6499 20.3708C15.5088 20.7363 17.9836 22.1799 18.4529 25.3056C18.4754 25.4532 18.4552 25.5893 18.2778 25.5893C16.9415 25.5893 15.6098 25.5893 14.2871 25.5893C14.2062 25.5893 14.1366 25.5303 14.1231 25.4486C13.7818 23.3217 12.4298 22.1323 10.2761 22.1845Z" fill="#006BDA"/>
<path fill-rule="evenodd" clip-rule="evenodd" d="M18.709 11.7882C14.6442 13.4589 10.5928 15.4519 6.68742 17.5765C5.18949 18.3914 3.70055 19.2336 2.18916 20.0235C1.68161 20.2868 1.29085 20.448 0.785554 20.5388C0.428478 20.6023 -0.0610986 20.5297 0.00627428 20.0326C0.0601726 19.6421 0.374579 19.1814 0.621613 18.8726C0.722673 18.7455 0.87763 18.5844 1.08199 18.3892C7.28928 12.4624 13.4966 6.53567 19.7039 0.606655C19.7959 0.518128 19.8453 0.497699 19.9554 0.572606C23.3689 2.96282 26.8005 5.3258 30.2365 7.68197C30.3667 7.77277 30.2971 7.91351 30.1624 7.94982C26.2256 8.98717 22.4078 10.2674 18.7112 11.7882M52.1596 21.6215C51.7823 21.5421 51.4028 21.3968 51.0682 21.2016C49.8465 20.4979 48.672 19.7012 47.4997 18.918C44.2433 16.7457 41.0004 14.5553 37.771 12.3421C31.9118 8.33344 26.0661 4.2998 20.2361 0.250279C20.1755 0.20942 20.1575 0.148133 20.1867 0.082305C20.2339 -0.0243809 20.3237 -0.00849151 20.4203 0.0255572C28.8958 2.94013 37.3735 5.85469 45.8513 8.76926C45.9142 8.78969 45.9972 8.83282 46.105 8.89638C46.7698 9.28907 47.4098 9.87017 47.8208 10.5375C48.0184 10.8599 48.2969 11.3638 48.654 12.0493C49.1031 12.9119 49.5456 13.7767 49.979 14.6461C51.1423 16.9773 52.108 18.943 52.8738 20.5456C53.0377 20.8861 53.1141 21.4376 52.6582 21.6192C52.5324 21.6692 52.3101 21.6556 52.1596 21.6238" fill="#FFB114"/>
</svg>
